<svg xmlns="http://www.w3.org/2000/svg" xmlns:xlink="http://www.w3.org/1999/xlink" fill="none" version="1.1" width="278" height="263" viewBox="0 0 278 263"><defs><linearGradient x1="0.5" y1="0" x2="0.5" y2="1" id="master_svg0_1_895"><stop offset="0%" stop-color="#00D4FF" stop-opacity="1"/><stop offset="100%" stop-color="#3C4FFF" stop-opacity="1"/></linearGradient><radialGradient cx="0" cy="0" r="1" gradientUnits="userSpaceOnUse" id="master_svg1_1_896" gradientTransform="translate(247.8716138601303 163.8887107372284) rotate(175.73915009116683) scale(109.17335443235987 176.45460774532583)"><stop offset="0%" stop-color="#6F10FF" stop-opacity="1"/><stop offset="100%" stop-color="#761AFF" stop-opacity="0"/></radialGradient></defs><g><g><path d="M52.8928,171.571C52.8987,171.527,52.9047,171.482,52.9108,171.437C60.7321,170.108,67.5733,165.406,71.6176,158.58C71.75,158.345,71.884,158.111,72.0196,157.878L72.021,157.875C82.4056,140.026,101.497,129.045,122.146,129.045C125.85,129.045,129.546,129.4,133.183,130.106C124.084,124.898,113.782,122.158,103.299,122.158C84.718,122.158,67.1797,130.744,55.7818,145.419L55.634,145.357C53.6776,148.239,50.4206,149.965,46.9374,149.965C46.1023,149.965,45.2702,149.866,44.4586,149.669L44.4301,149.729C31.9708,144.27,23.9218,131.956,23.9218,118.352C23.9218,104.782,31.9309,92.4921,44.3439,87.0133C52.4509,66.4433,72.3105,52.9231,94.4185,52.9231C97.8064,52.9231,101.187,53.243,104.514,53.8785C113.756,33.8503,133.798,21.0242,155.854,21.0242C186.106,21.0242,210.998,44.838,212.341,75.063C212.842,75.0442,213.344,75.0348,213.846,75.0348C236.066,75.0348,254.078,93.049,254.078,115.271C254.078,127.088,248.884,138.307,239.874,145.952C237.076,147.67,233.838,148.579,230.519,148.579C226.611,148.579,222.833,147.32,219.762,144.995C219.75,145.011,219.739,145.027,219.727,145.043L166.003,105.484L205.695,158.328C213.194,168.312,225.48,172.747,237.109,170.629Q237.111,170.634,237.113,170.638C237.152,170.628,237.191,170.617,237.229,170.607C241.116,169.884,244.928,168.427,248.46,166.2L248.45,166.193C266.621,156.637,278,137.797,278,117.264C278,90.3107,258.563,67.2864,231.993,62.7676C224.907,26.3163,192.984,0,155.854,0C130.585,0,106.9,12.3099,92.3784,32.9908C63.9566,33.3252,38.9831,51.926,30.521,79.0635C12.1129,86.2691,0,104.019,0,123.789C0,150.315,21.5014,171.819,48.0248,171.819C49.6506,171.819,51.2754,171.736,52.8928,171.571ZM91.8814,106.571L118.721,84.15C120.727,82.4741,123.776,83.1499,124.886,85.5166L157.046,154.067C162.18,165.011,173.178,172,185.265,172L199.529,172L134.346,75.3338C130.046,68.9575,120.757,68.688,116.095,74.8043L91.8814,106.571Z" fill-rule="evenodd" fill="url(#master_svg0_1_895)" fill-opacity="1"/><path d="M52.8928,171.571C52.8987,171.527,52.9047,171.482,52.9108,171.437C60.7321,170.108,67.5733,165.406,71.6176,158.58C71.75,158.345,71.884,158.111,72.0196,157.878L72.021,157.875C82.4056,140.026,101.497,129.045,122.146,129.045C125.85,129.045,129.546,129.4,133.183,130.106C124.084,124.898,113.782,122.158,103.299,122.158C84.718,122.158,67.1797,130.744,55.7818,145.419L55.634,145.357C53.6776,148.239,50.4206,149.965,46.9374,149.965C46.1023,149.965,45.2702,149.866,44.4586,149.669L44.4301,149.729C31.9708,144.27,23.9218,131.956,23.9218,118.352C23.9218,104.782,31.9309,92.4921,44.3439,87.0133C52.4509,66.4433,72.3105,52.9231,94.4185,52.9231C97.8064,52.9231,101.187,53.243,104.514,53.8785C113.756,33.8503,133.798,21.0242,155.854,21.0242C186.106,21.0242,210.998,44.838,212.341,75.063C212.842,75.0442,213.344,75.0348,213.846,75.0348C236.066,75.0348,254.078,93.049,254.078,115.271C254.078,127.088,248.884,138.307,239.874,145.952C237.076,147.67,233.838,148.579,230.519,148.579C226.611,148.579,222.833,147.32,219.762,144.995C219.75,145.011,219.739,145.027,219.727,145.043L166.003,105.484L205.695,158.328C213.194,168.312,225.48,172.747,237.109,170.629Q237.111,170.634,237.113,170.638C237.152,170.628,237.191,170.617,237.229,170.607C241.116,169.884,244.928,168.427,248.46,166.2L248.45,166.193C266.621,156.637,278,137.797,278,117.264C278,90.3107,258.563,67.2864,231.993,62.7676C224.907,26.3163,192.984,0,155.854,0C130.585,0,106.9,12.3099,92.3784,32.9908C63.9566,33.3252,38.9831,51.926,30.521,79.0635C12.1129,86.2691,0,104.019,0,123.789C0,150.315,21.5014,171.819,48.0248,171.819C49.6506,171.819,51.2754,171.736,52.8928,171.571ZM91.8814,106.571L118.721,84.15C120.727,82.4741,123.776,83.1499,124.886,85.5166L157.046,154.067C162.18,165.011,173.178,172,185.265,172L199.529,172L134.346,75.3338C130.046,68.9575,120.757,68.688,116.095,74.8043L91.8814,106.571Z" fill-rule="evenodd" fill="url(#master_svg1_1_896)" fill-opacity="1"/></g><g><path d="M72.97489999999999,236.0627L78.2795,262.8234L62.631,262.8234L62.0122,259.9088L11.618865,262.2051L12.8566,253.10829999999999L29.3891,230.3219L11,230.3219L12.14932,221.8433L86.2363,221.8433L85.087,230.3219L47.8667,230.3219L32.3066,252.1367L60.244,250.812L57.3265,236.0627L72.97489999999999,236.0627ZM84.0261,201L82.7884,209.65527L20.4598,209.65527L21.697499999999998,201L84.0261,201ZM128.584,263L132.298,236.3276L115.5,236.3276L116.738,227.9373L133.447,227.9373L134.41899999999998,221.2251L151.217,221.2251L150.245,227.9373L167.131,227.9373L165.893,236.3276L149.095,236.3276L145.382,263L128.584,263ZM154.135,224.5812L148.3,212.8348L154.93,212.8348L155.461,209.47863L133.624,209.47863L133.09300000000002,212.8348L139.901,212.8348L130.70600000000002,224.5812L117.18,224.5812L125.136,214.5128L118.594,214.5128L120.097,203.56125L117.975,201.0883174L170.932,201.0883174L169.076,214.5128L162.534,214.5128L167.573,224.5812L154.135,224.5812ZM89.1538,263L97.7295,238.0057L112.848,238.0057L104.2718,263L89.1538,263ZM110.9909,263L117.798,238.8889L129.55700000000002,238.8889L122.749,263L110.9909,263ZM151.306,263L151.306,238.8889L163.064,238.8889L163.064,263L151.306,263ZM98.1716,234.6496L96.9339,219.547L112.052,219.547L113.29,234.6496L98.1716,234.6496ZM100.7355,216.1909L99.4977,201.0883174L114.616,201.0883174L115.853,216.1909L100.7355,216.1909ZM226.277,206.91738L232.996,256.906L217.789,256.906L216.021,243.3048L194.803,243.3048L188.88,256.906L174.469,256.906L194.007,209.39031L191.443,206.91738L226.277,206.91738ZM206.738,215.39600000000002L198.251,234.8262L215.226,234.8262L212.662,215.39600000000002L206.738,215.39600000000002ZM265,206.91738L257.308,256.906L241.218,256.906L247.141,210.2735L244.577,206.91738L265,206.91738Z" fill="#000000" fill-opacity="1"/></g></g></svg>